<svg xmlns="http://www.w3.org/2000/svg" font-family="Menlo,Lucida Console,monospace" viewBox="0 0 1136 489"><path fill="none" stroke="currentColor" d="M472 16h192M472 48h104m0 0h88M192 80h160m0 0h136m0 0h88m0 0h200m0 0h128m-768 32h40m0 0h40m112 0h24m0 0h32m72 0h32m0 0h24m224 0h40m0 0h40m72 0h32m0 0h32m-816 32h40m0 0h40m112 0h32m0 0h24m72 0h32m0 0h24m224 0h32m0 0h16m0 0h32m72 0h32m0 0h32M80 176h96m0 0h96m176 0h40m0 0h40m360 0h32m0 0h48M8 224h56m0 0h48m16 0h48m0 0h48m16 0h48m0 0h40m64 0h40m0 0h48m16 0h48m0 0h40m256 0h32m0 0h32m48 0h32m0 0h40M8 256h104m16 0h96m16 0h88m64 0h88m16 0h88m256 0h64m48 0h72m-744 32h80m0 0h80m160 0h112m0 0h40m48 0h72m0 0h120m-776 48h64m0 0h72m16 0h72m0 0h72m16 0h56m0 0h48m24 0h56m0 0h56m24 0h80m0 0h56m16 0h64m0 0h72m-864 32h136m16 0h144m16 0h104m24 0h56m0 0h56m24 0h136m16 0h136m-432 32h64m0 0h48m-160 48h32m0 0h40m56 0h48m0 0h48m-224 32h72m56 0h96M8 224v32m56-64v16m0 0v16m48 0v32m16-32v32m8-144v32m40-48v16m0 32v32m0 0v32m0 0v16m40-112v32m0 192v32m8-144v32m16-32v32m40 32v32m0 0v16m8-144v16m0 0v16m40-112v32m0 80v32m24-176v32m0 224v32m8-224v144m8 48v32m16-256v32m8 80v32m40-64v16m0 0v16m8 64v32m0 0v16m16-224v32m16-128v32m8 176v32m8-176v32m0 32v32m8 48v32m16-144v32m0 192v32m16-32v32m16-176v16m0 0v16m32-176v32m8 144v32m0 48v16m0 0v16m16 112v32m32-144v32m0 48v16m0 0v16m24-112v32m8-352v32m8 400v32m40-192v32m0 0v16m0 32v32m16 48v32m8-368v32m32 0v128m0 64v32m8-288v32m0 304v16m0 0v16m8-304v128m8 64v32m24-256v32m8 304v32m16-256v32m32-64v16m0 0v16m0 64v32m0 0v16m16-224v32m16 80v32m16-160v16m0 32v32m8 160v32m16-32v32m8-256v32m0 80v32m32-64v16m0 0v16m24 80v16m0 0v16m16-112v32m56 80v32M64 208v8"/><path fill="currentColor" d="m64 224 5.6-12H58.4z"/><path fill="none" stroke="currentColor" d="M176 208v8"/><path fill="currentColor" d="m176 224 5.6-12h-11.2z"/><path fill="none" stroke="currentColor" d="M280 320v8"/><path fill="currentColor" d="m280 336 5.6-12h-11.2z"/><path fill="none" stroke="currentColor" d="M288 208v8"/><path fill="currentColor" d="m288 224 5.6-12h-11.2z"/><path fill="none" stroke="currentColor" d="M432 208v8"/><path fill="currentColor" d="m432 224 5.6-12h-11.2z"/><path fill="none" stroke="currentColor" d="M440 320v8"/><path fill="currentColor" d="m440 336 5.6-12h-11.2z"/><path fill="none" stroke="currentColor" d="M544 208v8"/><path fill="currentColor" d="m544 224 5.6-12h-11.2z"/><path fill="none" stroke="currentColor" d="M584 320v8"/><path fill="currentColor" d="m584 336 5.6-12h-11.2z"/><path fill="none" stroke="currentColor" d="M632 432v8"/><path fill="currentColor" d="m632 448 5.6-12h-11.2z"/><path fill="none" stroke="currentColor" d="M712 320v8"/><path fill="currentColor" d="m712 336 5.6-12h-11.2z"/><path fill="none" stroke="currentColor" d="M776 432v8"/><path fill="currentColor" d="m776 448 5.6-12h-11.2z"/><path fill="none" stroke="currentColor" d="M872 208v8"/><path fill="currentColor" d="m872 224 5.6-12h-11.2z"/><path fill="none" stroke="currentColor" d="M872 320v8"/><path fill="currentColor" d="m872 336 5.6-12h-11.2z"/><path fill="none" stroke="currentColor" d="M984 208v8"/><path fill="currentColor" d="m984 224 5.6-12h-11.2z"/><path fill="none" stroke="currentColor" d="M1008 320v8"/><path fill="currentColor" d="m1008 336 5.6-12h-11.2z"/><path fill="none" stroke="currentColor" d="M192 80a16 16 0 0 0-16 16m728-16a16 16 0 0 1 16 16M80 176a16 16 0 0 0-16 16m208-16a16 16 0 0 1 16 16m160-16a16 16 0 0 0-16 16m96-16a16 16 0 0 1 16 16m344-16a16 16 0 0 0-16 16m96-16a16 16 0 0 1 16 16m-384 96a16 16 0 0 0-16 16m184-32a16 16 0 0 1-16 16m32-16a16 16 0 0 0 16 16m192 0a16 16 0 0 1 16 16m-360 96a16 16 0 0 0-16 16m128-16a16 16 0 0 1 16 16"/><text x="24" y="228" fill="currentColor" style="font-size:1em" text-anchor="middle" transform="translate(8 16)">A</text><text x="32" y="228" fill="currentColor" style="font-size:1em" text-anchor="middle" transform="translate(8 16)">n</text><text x="40" y="228" fill="currentColor" style="font-size:1em" text-anchor="middle" transform="translate(8 16)">t</text><text x="48" y="228" fill="currentColor" style="font-size:1em" text-anchor="middle" transform="translate(8 16)">e</text><text x="56" y="228" fill="currentColor" style="font-size:1em" text-anchor="middle" transform="translate(8 16)">-</text><text x="64" y="228" fill="currentColor" style="font-size:1em" text-anchor="middle" transform="translate(8 16)">H</text><text x="72" y="228" fill="currentColor" style="font-size:1em" text-anchor="middle" transform="translate(8 16)">o</text><text x="80" y="228" fill="currentColor" style="font-size:1em" text-anchor="middle" transform="translate(8 16)">c</text><text x="136" y="228" fill="currentColor" style="font-size:1em" text-anchor="middle" transform="translate(8 16)">I</text><text x="144" y="228" fill="currentColor" style="font-size:1em" text-anchor="middle" transform="translate(8 16)">n</text><text x="152" y="116" fill="currentColor" style="font-size:1em" text-anchor="middle" transform="translate(8 16)">S</text><text x="152" y="228" fill="currentColor" style="font-size:1em" text-anchor="middle" transform="translate(8 16)">t</text><text x="160" y="116" fill="currentColor" style="font-size:1em" text-anchor="middle" transform="translate(8 16)">t</text><text x="160" y="228" fill="currentColor" style="font-size:1em" text-anchor="middle" transform="translate(8 16)">r</text><text x="168" y="116" fill="currentColor" style="font-size:1em" text-anchor="middle" transform="translate(8 16)">a</text><text x="168" y="228" fill="currentColor" style="font-size:1em" text-anchor="middle" transform="translate(8 16)">a</text><text x="176" y="116" fill="currentColor" style="font-size:1em" text-anchor="middle" transform="translate(8 16)">g</text><text x="176" y="228" fill="currentColor" style="font-size:1em" text-anchor="middle" transform="translate(8 16)">-</text><text x="184" y="116" fill="currentColor" style="font-size:1em" text-anchor="middle" transform="translate(8 16)">e</text><text x="184" y="228" fill="currentColor" style="font-size:1em" text-anchor="middle" transform="translate(8 16)">H</text><text x="192" y="228" fill="currentColor" style="font-size:1em" text-anchor="middle" transform="translate(8 16)">o</text><text x="200" y="228" fill="currentColor" style="font-size:1em" text-anchor="middle" transform="translate(8 16)">c</text><text x="224" y="340" fill="currentColor" style="font-size:1em" text-anchor="middle" transform="translate(8 16)">R</text><text x="232" y="340" fill="currentColor" style="font-size:1em" text-anchor="middle" transform="translate(8 16)">e</text><text x="240" y="340" fill="currentColor" style="font-size:1em" text-anchor="middle" transform="translate(8 16)">f</text><text x="248" y="228" fill="currentColor" style="font-size:1em" text-anchor="middle" transform="translate(8 16)">P</text><text x="248" y="340" fill="currentColor" style="font-size:1em" text-anchor="middle" transform="translate(8 16)">e</text><text x="256" y="228" fill="currentColor" style="font-size:1em" text-anchor="middle" transform="translate(8 16)">o</text><text x="256" y="340" fill="currentColor" style="font-size:1em" text-anchor="middle" transform="translate(8 16)">r</text><text x="264" y="228" fill="currentColor" style="font-size:1em" text-anchor="middle" transform="translate(8 16)">s</text><text x="264" y="340" fill="currentColor" style="font-size:1em" text-anchor="middle" transform="translate(8 16)">e</text><text x="272" y="228" fill="currentColor" style="font-size:1em" text-anchor="middle" transform="translate(8 16)">t</text><text x="272" y="340" fill="currentColor" style="font-size:1em" text-anchor="middle" transform="translate(8 16)">n</text><text x="280" y="228" fill="currentColor" style="font-size:1em" text-anchor="middle" transform="translate(8 16)">-</text><text x="280" y="340" fill="currentColor" style="font-size:1em" text-anchor="middle" transform="translate(8 16)">c</text><text x="288" y="228" fill="currentColor" style="font-size:1em" text-anchor="middle" transform="translate(8 16)">H</text><text x="288" y="340" fill="currentColor" style="font-size:1em" text-anchor="middle" transform="translate(8 16)">e</text><text x="296" y="228" fill="currentColor" style="font-size:1em" text-anchor="middle" transform="translate(8 16)">o</text><text x="296" y="340" fill="currentColor" style="font-size:1em" text-anchor="middle" transform="translate(8 16)">-</text><text x="304" y="228" fill="currentColor" style="font-size:1em" text-anchor="middle" transform="translate(8 16)">c</text><text x="304" y="340" fill="currentColor" style="font-size:1em" text-anchor="middle" transform="translate(8 16)">F</text><text x="312" y="340" fill="currentColor" style="font-size:1em" text-anchor="middle" transform="translate(8 16)">r</text><text x="320" y="340" fill="currentColor" style="font-size:1em" text-anchor="middle" transform="translate(8 16)">e</text><text x="328" y="340" fill="currentColor" style="font-size:1em" text-anchor="middle" transform="translate(8 16)">e</text><text x="336" y="116" fill="currentColor" style="font-size:1em" text-anchor="middle" transform="translate(8 16)">D</text><text x="344" y="116" fill="currentColor" style="font-size:1em" text-anchor="middle" transform="translate(8 16)">a</text><text x="352" y="116" fill="currentColor" style="font-size:1em" text-anchor="middle" transform="translate(8 16)">t</text><text x="360" y="116" fill="currentColor" style="font-size:1em" text-anchor="middle" transform="translate(8 16)">a</text><text x="376" y="340" fill="currentColor" style="font-size:1em" text-anchor="middle" transform="translate(8 16)">R</text><text x="384" y="340" fill="currentColor" style="font-size:1em" text-anchor="middle" transform="translate(8 16)">e</text><text x="392" y="340" fill="currentColor" style="font-size:1em" text-anchor="middle" transform="translate(8 16)">f</text><text x="400" y="228" fill="currentColor" style="font-size:1em" text-anchor="middle" transform="translate(8 16)">A</text><text x="400" y="340" fill="currentColor" style="font-size:1em" text-anchor="middle" transform="translate(8 16)">e</text><text x="408" y="228" fill="currentColor" style="font-size:1em" text-anchor="middle" transform="translate(8 16)">g</text><text x="408" y="340" fill="currentColor" style="font-size:1em" text-anchor="middle" transform="translate(8 16)">r</text><text x="416" y="228" fill="currentColor" style="font-size:1em" text-anchor="middle" transform="translate(8 16)">n</text><text x="416" y="340" fill="currentColor" style="font-size:1em" text-anchor="middle" transform="translate(8 16)">e</text><text x="424" y="228" fill="currentColor" style="font-size:1em" text-anchor="middle" transform="translate(8 16)">o</text><text x="424" y="340" fill="currentColor" style="font-size:1em" text-anchor="middle" transform="translate(8 16)">n</text><text x="432" y="228" fill="currentColor" style="font-size:1em" text-anchor="middle" transform="translate(8 16)">s</text><text x="432" y="340" fill="currentColor" style="font-size:1em" text-anchor="middle" transform="translate(8 16)">c</text><text x="440" y="228" fill="currentColor" style="font-size:1em" text-anchor="middle" transform="translate(8 16)">t</text><text x="440" y="340" fill="currentColor" style="font-size:1em" text-anchor="middle" transform="translate(8 16)">e</text><text x="448" y="228" fill="currentColor" style="font-size:1em" text-anchor="middle" transform="translate(8 16)">i</text><text x="448" y="340" fill="currentColor" style="font-size:1em" text-anchor="middle" transform="translate(8 16)">-</text><text x="456" y="228" fill="currentColor" style="font-size:1em" text-anchor="middle" transform="translate(8 16)">c</text><text x="456" y="340" fill="currentColor" style="font-size:1em" text-anchor="middle" transform="translate(8 16)">B</text><text x="464" y="116" fill="currentColor" style="font-size:1em" text-anchor="middle" transform="translate(8 16)">T</text><text x="464" y="340" fill="currentColor" style="font-size:1em" text-anchor="middle" transform="translate(8 16)">a</text><text x="472" y="116" fill="currentColor" style="font-size:1em" text-anchor="middle" transform="translate(8 16)">a</text><text x="472" y="340" fill="currentColor" style="font-size:1em" text-anchor="middle" transform="translate(8 16)">s</text><text x="480" y="20" fill="currentColor" style="font-size:1em" text-anchor="middle" transform="translate(8 16)">D</text><text x="480" y="116" fill="currentColor" style="font-size:1em" text-anchor="middle" transform="translate(8 16)">s</text><text x="480" y="340" fill="currentColor" style="font-size:1em" text-anchor="middle" transform="translate(8 16)">e</text><text x="488" y="20" fill="currentColor" style="font-size:1em" text-anchor="middle" transform="translate(8 16)">a</text><text x="488" y="116" fill="currentColor" style="font-size:1em" text-anchor="middle" transform="translate(8 16)">k</text><text x="488" y="340" fill="currentColor" style="font-size:1em" text-anchor="middle" transform="translate(8 16)">d</text><text x="496" y="20" fill="currentColor" style="font-size:1em" text-anchor="middle" transform="translate(8 16)">t</text><text x="504" y="20" fill="currentColor" style="font-size:1em" text-anchor="middle" transform="translate(8 16)">a</text><text x="504" y="228" fill="currentColor" style="font-size:1em" text-anchor="middle" transform="translate(8 16)">S</text><text x="512" y="228" fill="currentColor" style="font-size:1em" text-anchor="middle" transform="translate(8 16)">p</text><text x="520" y="20" fill="currentColor" style="font-size:1em" text-anchor="middle" transform="translate(8 16)">V</text><text x="520" y="228" fill="currentColor" style="font-size:1em" text-anchor="middle" transform="translate(8 16)">e</text><text x="528" y="20" fill="currentColor" style="font-size:1em" text-anchor="middle" transform="translate(8 16)">a</text><text x="528" y="228" fill="currentColor" style="font-size:1em" text-anchor="middle" transform="translate(8 16)">c</text><text x="536" y="20" fill="currentColor" style="font-size:1em" text-anchor="middle" transform="translate(8 16)">l</text><text x="536" y="228" fill="currentColor" style="font-size:1em" text-anchor="middle" transform="translate(8 16)">i</text><text x="536" y="340" fill="currentColor" style="font-size:1em" text-anchor="middle" transform="translate(8 16)">M</text><text x="544" y="20" fill="currentColor" style="font-size:1em" text-anchor="middle" transform="translate(8 16)">u</text><text x="544" y="228" fill="currentColor" style="font-size:1em" text-anchor="middle" transform="translate(8 16)">f</text><text x="544" y="340" fill="currentColor" style="font-size:1em" text-anchor="middle" transform="translate(8 16)">o</text><text x="552" y="20" fill="currentColor" style="font-size:1em" text-anchor="middle" transform="translate(8 16)">a</text><text x="552" y="228" fill="currentColor" style="font-size:1em" text-anchor="middle" transform="translate(8 16)">i</text><text x="552" y="340" fill="currentColor" style="font-size:1em" text-anchor="middle" transform="translate(8 16)">d</text><text x="560" y="20" fill="currentColor" style="font-size:1em" text-anchor="middle" transform="translate(8 16)">t</text><text x="560" y="228" fill="currentColor" style="font-size:1em" text-anchor="middle" transform="translate(8 16)">c</text><text x="560" y="340" fill="currentColor" style="font-size:1em" text-anchor="middle" transform="translate(8 16)">e</text><text x="568" y="20" fill="currentColor" style="font-size:1em" text-anchor="middle" transform="translate(8 16)">i</text><text x="568" y="340" fill="currentColor" style="font-size:1em" text-anchor="middle" transform="translate(8 16)">l</text><text x="576" y="20" fill="currentColor" style="font-size:1em" text-anchor="middle" transform="translate(8 16)">o</text><text x="576" y="340" fill="currentColor" style="font-size:1em" text-anchor="middle" transform="translate(8 16)">-</text><text x="584" y="20" fill="currentColor" style="font-size:1em" text-anchor="middle" transform="translate(8 16)">n</text><text x="584" y="340" fill="currentColor" style="font-size:1em" text-anchor="middle" transform="translate(8 16)">F</text><text x="592" y="340" fill="currentColor" style="font-size:1em" text-anchor="middle" transform="translate(8 16)">r</text><text x="600" y="20" fill="currentColor" style="font-size:1em" text-anchor="middle" transform="translate(8 16)">M</text><text x="600" y="340" fill="currentColor" style="font-size:1em" text-anchor="middle" transform="translate(8 16)">e</text><text x="608" y="20" fill="currentColor" style="font-size:1em" text-anchor="middle" transform="translate(8 16)">e</text><text x="608" y="340" fill="currentColor" style="font-size:1em" text-anchor="middle" transform="translate(8 16)">e</text><text x="608" y="452" fill="currentColor" style="font-size:1em" text-anchor="middle" transform="translate(8 16)">D</text><text x="616" y="20" fill="currentColor" style="font-size:1em" text-anchor="middle" transform="translate(8 16)">t</text><text x="616" y="452" fill="currentColor" style="font-size:1em" text-anchor="middle" transform="translate(8 16)">i</text><text x="624" y="20" fill="currentColor" style="font-size:1em" text-anchor="middle" transform="translate(8 16)">h</text><text x="624" y="452" fill="currentColor" style="font-size:1em" text-anchor="middle" transform="translate(8 16)">r</text><text x="632" y="20" fill="currentColor" style="font-size:1em" text-anchor="middle" transform="translate(8 16)">o</text><text x="632" y="452" fill="currentColor" style="font-size:1em" text-anchor="middle" transform="translate(8 16)">e</text><text x="640" y="20" fill="currentColor" style="font-size:1em" text-anchor="middle" transform="translate(8 16)">d</text><text x="640" y="452" fill="currentColor" style="font-size:1em" text-anchor="middle" transform="translate(8 16)">c</text><text x="648" y="452" fill="currentColor" style="font-size:1em" text-anchor="middle" transform="translate(8 16)">t</text><text x="664" y="340" fill="currentColor" style="font-size:1em" text-anchor="middle" transform="translate(8 16)">M</text><text x="672" y="340" fill="currentColor" style="font-size:1em" text-anchor="middle" transform="translate(8 16)">o</text><text x="680" y="340" fill="currentColor" style="font-size:1em" text-anchor="middle" transform="translate(8 16)">d</text><text x="688" y="340" fill="currentColor" style="font-size:1em" text-anchor="middle" transform="translate(8 16)">e</text><text x="696" y="340" fill="currentColor" style="font-size:1em" text-anchor="middle" transform="translate(8 16)">l</text><text x="704" y="340" fill="currentColor" style="font-size:1em" text-anchor="middle" transform="translate(8 16)">-</text><text x="712" y="340" fill="currentColor" style="font-size:1em" text-anchor="middle" transform="translate(8 16)">B</text><text x="720" y="340" fill="currentColor" style="font-size:1em" text-anchor="middle" transform="translate(8 16)">a</text><text x="728" y="340" fill="currentColor" style="font-size:1em" text-anchor="middle" transform="translate(8 16)">s</text><text x="736" y="340" fill="currentColor" style="font-size:1em" text-anchor="middle" transform="translate(8 16)">e</text><text x="736" y="452" fill="currentColor" style="font-size:1em" text-anchor="middle" transform="translate(8 16)">S</text><text x="744" y="340" fill="currentColor" style="font-size:1em" text-anchor="middle" transform="translate(8 16)">d</text><text x="744" y="452" fill="currentColor" style="font-size:1em" text-anchor="middle" transform="translate(8 16)">u</text><text x="752" y="116" fill="currentColor" style="font-size:1em" text-anchor="middle" transform="translate(8 16)">M</text><text x="752" y="452" fill="currentColor" style="font-size:1em" text-anchor="middle" transform="translate(8 16)">r</text><text x="760" y="116" fill="currentColor" style="font-size:1em" text-anchor="middle" transform="translate(8 16)">o</text><text x="760" y="452" fill="currentColor" style="font-size:1em" text-anchor="middle" transform="translate(8 16)">r</text><text x="768" y="116" fill="currentColor" style="font-size:1em" text-anchor="middle" transform="translate(8 16)">d</text><text x="768" y="452" fill="currentColor" style="font-size:1em" text-anchor="middle" transform="translate(8 16)">o</text><text x="776" y="116" fill="currentColor" style="font-size:1em" text-anchor="middle" transform="translate(8 16)">e</text><text x="776" y="452" fill="currentColor" style="font-size:1em" text-anchor="middle" transform="translate(8 16)">g</text><text x="784" y="116" fill="currentColor" style="font-size:1em" text-anchor="middle" transform="translate(8 16)">l</text><text x="784" y="452" fill="currentColor" style="font-size:1em" text-anchor="middle" transform="translate(8 16)">a</text><text x="792" y="452" fill="currentColor" style="font-size:1em" text-anchor="middle" transform="translate(8 16)">t</text><text x="800" y="340" fill="currentColor" style="font-size:1em" text-anchor="middle" transform="translate(8 16)">M</text><text x="800" y="452" fill="currentColor" style="font-size:1em" text-anchor="middle" transform="translate(8 16)">e</text><text x="808" y="340" fill="currentColor" style="font-size:1em" text-anchor="middle" transform="translate(8 16)">o</text><text x="816" y="340" fill="currentColor" style="font-size:1em" text-anchor="middle" transform="translate(8 16)">d</text><text x="824" y="340" fill="currentColor" style="font-size:1em" text-anchor="middle" transform="translate(8 16)">e</text><text x="832" y="340" fill="currentColor" style="font-size:1em" text-anchor="middle" transform="translate(8 16)">l</text><text x="840" y="340" fill="currentColor" style="font-size:1em" text-anchor="middle" transform="translate(8 16)">-</text><text x="848" y="228" fill="currentColor" style="font-size:1em" text-anchor="middle" transform="translate(8 16)">L</text><text x="848" y="340" fill="currentColor" style="font-size:1em" text-anchor="middle" transform="translate(8 16)">A</text><text x="856" y="228" fill="currentColor" style="font-size:1em" text-anchor="middle" transform="translate(8 16)">o</text><text x="856" y="340" fill="currentColor" style="font-size:1em" text-anchor="middle" transform="translate(8 16)">g</text><text x="864" y="228" fill="currentColor" style="font-size:1em" text-anchor="middle" transform="translate(8 16)">c</text><text x="864" y="340" fill="currentColor" style="font-size:1em" text-anchor="middle" transform="translate(8 16)">n</text><text x="872" y="228" fill="currentColor" style="font-size:1em" text-anchor="middle" transform="translate(8 16)">a</text><text x="872" y="340" fill="currentColor" style="font-size:1em" text-anchor="middle" transform="translate(8 16)">o</text><text x="880" y="228" fill="currentColor" style="font-size:1em" text-anchor="middle" transform="translate(8 16)">l</text><text x="880" y="340" fill="currentColor" style="font-size:1em" text-anchor="middle" transform="translate(8 16)">s</text><text x="888" y="340" fill="currentColor" style="font-size:1em" text-anchor="middle" transform="translate(8 16)">t</text><text x="896" y="116" fill="currentColor" style="font-size:1em" text-anchor="middle" transform="translate(8 16)">S</text><text x="896" y="340" fill="currentColor" style="font-size:1em" text-anchor="middle" transform="translate(8 16)">i</text><text x="904" y="116" fill="currentColor" style="font-size:1em" text-anchor="middle" transform="translate(8 16)">c</text><text x="904" y="340" fill="currentColor" style="font-size:1em" text-anchor="middle" transform="translate(8 16)">c</text><text x="912" y="116" fill="currentColor" style="font-size:1em" text-anchor="middle" transform="translate(8 16)">o</text><text x="920" y="116" fill="currentColor" style="font-size:1em" text-anchor="middle" transform="translate(8 16)">p</text><text x="928" y="116" fill="currentColor" style="font-size:1em" text-anchor="middle" transform="translate(8 16)">e</text><text x="952" y="340" fill="currentColor" style="font-size:1em" text-anchor="middle" transform="translate(8 16)">M</text><text x="960" y="228" fill="currentColor" style="font-size:1em" text-anchor="middle" transform="translate(8 16)">G</text><text x="960" y="340" fill="currentColor" style="font-size:1em" text-anchor="middle" transform="translate(8 16)">o</text><text x="968" y="228" fill="currentColor" style="font-size:1em" text-anchor="middle" transform="translate(8 16)">l</text><text x="968" y="340" fill="currentColor" style="font-size:1em" text-anchor="middle" transform="translate(8 16)">d</text><text x="976" y="228" fill="currentColor" style="font-size:1em" text-anchor="middle" transform="translate(8 16)">o</text><text x="976" y="340" fill="currentColor" style="font-size:1em" text-anchor="middle" transform="translate(8 16)">e</text><text x="984" y="228" fill="currentColor" style="font-size:1em" text-anchor="middle" transform="translate(8 16)">b</text><text x="984" y="340" fill="currentColor" style="font-size:1em" text-anchor="middle" transform="translate(8 16)">l</text><text x="992" y="228" fill="currentColor" style="font-size:1em" text-anchor="middle" transform="translate(8 16)">a</text><text x="992" y="340" fill="currentColor" style="font-size:1em" text-anchor="middle" transform="translate(8 16)">-</text><text x="1000" y="228" fill="currentColor" style="font-size:1em" text-anchor="middle" transform="translate(8 16)">l</text><text x="1000" y="340" fill="currentColor" style="font-size:1em" text-anchor="middle" transform="translate(8 16)">S</text><text x="1008" y="340" fill="currentColor" style="font-size:1em" text-anchor="middle" transform="translate(8 16)">p</text><text x="1016" y="340" fill="currentColor" style="font-size:1em" text-anchor="middle" transform="translate(8 16)">e</text><text x="1024" y="340" fill="currentColor" style="font-size:1em" text-anchor="middle" transform="translate(8 16)">c</text><text x="1032" y="340" fill="currentColor" style="font-size:1em" text-anchor="middle" transform="translate(8 16)">i</text><text x="1040" y="340" fill="currentColor" style="font-size:1em" text-anchor="middle" transform="translate(8 16)">f</text><text x="1048" y="340" fill="currentColor" style="font-size:1em" text-anchor="middle" transform="translate(8 16)">i</text><text x="1056" y="340" fill="currentColor" style="font-size:1em" text-anchor="middle" transform="translate(8 16)">c</text></svg>